<svg width="40" height="40" viewBox="0 0 40 40" fill="none" xmlns="http://www.w3.org/2000/svg">
<g clip-path="url(#clip0_202_747)">
<path opacity="0.4" d="M20 36.6668C29.2048 36.6668 36.6667 29.2049 36.6667 20.0002C36.6667 10.7954 29.2048 3.3335 20 3.3335C10.7953 3.3335 3.33334 10.7954 3.33334 20.0002C3.33334 29.2049 10.7953 36.6668 20 36.6668Z" fill="#003AD2"/>
<path d="M20 25.0169C19.6833 25.0169 19.3667 24.9002 19.1167 24.6502L13.2333 18.7669C12.75 18.2835 12.75 17.4835 13.2333 17.0002C13.7167 16.5169 14.5167 16.5169 15 17.0002L20 22.0002L25 17.0002C25.4833 16.5169 26.2833 16.5169 26.7667 17.0002C27.25 17.4835 27.25 18.2835 26.7667 18.7669L20.8833 24.6502C20.6333 24.9002 20.3167 25.0169 20 25.0169Z" fill="#003AD2"/>
</g>
<defs>
<clipPath id="clip0_202_747">
<rect width="40" height="40" fill="white"/>
</clipPath>
</defs>
</svg>
