<svg viewBox="0 0 448 417" fill="none" xmlns="http://www.w3.org/2000/svg">
<g filter="url(#filter0_dii_732_3348)">
<path fill-rule="evenodd" clip-rule="evenodd" d="M252.876 66.5672C248.907 68.9575 244.985 71.3198 241.113 73.5472C232.009 78.784 225.461 87.3158 218.951 95.798C211.507 105.496 204.114 115.129 193.008 119.699C181.453 124.453 168.806 123.085 156.135 121.714C143.895 120.39 131.634 119.063 120.314 123.25C91.303 133.981 59.1745 147.451 44.4746 174.638C30.0589 201.299 23.469 242.085 43.995 264.397C57.2583 278.814 78.018 279.153 99.0408 279.497C118.077 279.808 137.328 280.123 151.426 290.896C161.297 298.439 161.375 312.576 161.453 326.631C161.532 341.022 161.612 355.326 172.204 362.372C184.432 370.506 199.019 364.621 213.966 358.591C223.031 354.934 232.228 351.224 241.113 350.554C250.819 349.822 260.44 350.837 270.032 351.848C281.762 353.085 293.447 354.317 305.186 352.344C309.879 351.556 314.779 350.919 319.744 350.274C341.526 347.445 364.571 344.451 377.025 327.712C390.184 310.025 386.077 285.49 382.278 262.788C381.62 258.862 380.973 254.991 380.425 251.22C379.039 241.685 373.973 233.125 368.947 224.633C362.943 214.49 356.996 204.443 357.446 192.944C358.005 178.647 365.284 165.375 372.477 152.258C381.158 136.426 389.716 120.822 386.184 103.918C380.289 75.6975 354.397 49.0242 326.147 43.1101C300.676 37.7779 275.99 52.6461 252.876 66.5672ZM241.174 104.724C238.309 106.448 235.478 108.152 232.682 109.759C226.111 113.537 221.383 119.692 216.684 125.812C211.31 132.808 205.973 139.758 197.955 143.054C189.614 146.484 180.484 145.497 171.336 144.508C162.5 143.553 153.649 142.596 145.477 145.616C124.533 153.358 101.339 163.076 90.7274 182.689C80.3206 201.923 75.5633 231.347 90.3812 247.444C99.9562 257.845 114.943 258.09 130.119 258.338C143.861 258.562 157.759 258.789 167.936 266.561C175.062 272.003 175.119 282.202 175.175 292.341C175.233 302.724 175.29 313.043 182.937 318.126C191.764 323.994 202.295 319.749 213.085 315.399C219.629 312.76 226.269 310.084 232.682 309.6C239.689 309.072 246.635 309.804 253.56 310.534C262.028 311.426 270.463 312.315 278.938 310.892C282.326 310.323 285.863 309.864 289.447 309.398C305.172 307.357 321.808 305.197 330.799 293.122C340.299 280.361 337.334 262.661 334.591 246.283C334.116 243.451 333.649 240.658 333.253 237.937C332.253 231.059 328.596 224.884 324.967 218.757C320.633 211.439 316.34 204.191 316.665 195.895C317.068 185.582 322.323 176.006 327.515 166.543C333.783 155.122 339.96 143.864 337.411 131.669C333.155 111.31 314.463 92.0675 294.069 87.8009C275.682 83.9541 257.861 94.6804 241.174 104.724Z" fill="url(#paint0_linear_732_3348)"/>
</g>
<defs>
<filter id="filter0_dii_732_3348" x="0" y="0" width="448" height="416.355" filterUnits="userSpaceOnUse" color-interpolation-filters="sRGB">
<feFlood flood-opacity="0" result="BackgroundImageFix"/>
<feColorMatrix in="SourceAlpha" type="matrix" values="0 0 0 0 0 0 0 0 0 0 0 0 0 0 0 0 0 0 127 0" result="hardAlpha"/>
<feOffset dx="15" dy="4"/>
<feGaussianBlur stdDeviation="23"/>
<feColorMatrix type="matrix" values="0 0 0 0 0.385778 0 0 0 0 0.509366 0 0 0 0 0.516667 0 0 0 0.18 0"/>
<feBlend mode="normal" in2="BackgroundImageFix" result="effect1_dropShadow_732_3348"/>
<feBlend mode="normal" in="SourceGraphic" in2="effect1_dropShadow_732_3348" result="shape"/>
<feColorMatrix in="SourceAlpha" type="matrix" values="0 0 0 0 0 0 0 0 0 0 0 0 0 0 0 0 0 0 127 0" result="hardAlpha"/>
<feOffset dx="16.3852" dy="9.46"/>
<feGaussianBlur stdDeviation="8.5"/>
<feComposite in2="hardAlpha" operator="arithmetic" k2="-1" k3="1"/>
<feColorMatrix type="matrix" values="0 0 0 0 0.94 0 0 0 0 0.996653 0 0 0 0 1 0 0 0 1 0"/>
<feBlend mode="normal" in2="shape" result="effect2_innerShadow_732_3348"/>
<feColorMatrix in="SourceAlpha" type="matrix" values="0 0 0 0 0 0 0 0 0 0 0 0 0 0 0 0 0 0 127 0" result="hardAlpha"/>
<feOffset dx="-16.3852" dy="-9.46"/>
<feGaussianBlur stdDeviation="9.46"/>
<feComposite in2="hardAlpha" operator="arithmetic" k2="-1" k3="1"/>
<feColorMatrix type="matrix" values="0 0 0 0 0.775311 0 0 0 0 0.918225 0 0 0 0 0.926667 0 0 0 1 0"/>
<feBlend mode="normal" in2="effect2_innerShadow_732_3348" result="effect3_innerShadow_732_3348"/>
</filter>
<linearGradient id="paint0_linear_732_3348" x1="31" y1="42" x2="324.3" y2="227.857" gradientUnits="userSpaceOnUse">
<stop stop-color="#FDFFFF"/>
<stop offset="1" stop-color="#C5E1E3"/>
</linearGradient>
</defs>
</svg>
