<svg viewBox="0 0 442 443" fill="none" xmlns="http://www.w3.org/2000/svg">
<g filter="url(#filter0_dii_732_3383)">
<path d="M392 189.5C392 278.142 320.366 350 232 350C143.634 350 72 278.142 72 189.5C72 100.858 143.634 29 232 29C320.366 29 392 100.858 392 189.5ZM124.177 189.5C124.177 249.235 172.451 297.66 232 297.66C291.549 297.66 339.823 249.235 339.823 189.5C339.823 129.765 291.549 81.3404 232 81.3404C172.451 81.3404 124.177 129.765 124.177 189.5Z" fill="url(#paint0_linear_732_3383)"/>
</g>
<defs>
<filter id="filter0_dii_732_3383" x="0.400002" y="0.400002" width="441.2" height="442.2" filterUnits="userSpaceOnUse" color-interpolation-filters="sRGB">
<feFlood flood-opacity="0" result="BackgroundImageFix"/>
<feColorMatrix in="SourceAlpha" type="matrix" values="0 0 0 0 0 0 0 0 0 0 0 0 0 0 0 0 0 0 127 0" result="hardAlpha"/>
<feOffset dx="-11" dy="32"/>
<feGaussianBlur stdDeviation="30.3"/>
<feColorMatrix type="matrix" values="0 0 0 0 0.1008 0 0 0 0 0.205531 0 0 0 0 0.48 0 0 0 0.11 0"/>
<feBlend mode="normal" in2="BackgroundImageFix" result="effect1_dropShadow_732_3383"/>
<feBlend mode="normal" in="SourceGraphic" in2="effect1_dropShadow_732_3383" result="shape"/>
<feColorMatrix in="SourceAlpha" type="matrix" values="0 0 0 0 0 0 0 0 0 0 0 0 0 0 0 0 0 0 127 0" result="hardAlpha"/>
<feOffset dx="-13.1541" dy="11.4347"/>
<feGaussianBlur stdDeviation="8.71467"/>
<feComposite in2="hardAlpha" operator="arithmetic" k2="-1" k3="1"/>
<feColorMatrix type="matrix" values="0 0 0 0 0.926667 0 0 0 0 0.993989 0 0 0 0 1 0 0 0 1 0"/>
<feBlend mode="normal" in2="shape" result="effect2_innerShadow_732_3383"/>
<feColorMatrix in="SourceAlpha" type="matrix" values="0 0 0 0 0 0 0 0 0 0 0 0 0 0 0 0 0 0 127 0" result="hardAlpha"/>
<feOffset dx="13.1541" dy="-11.4347"/>
<feGaussianBlur stdDeviation="8.71467"/>
<feComposite in2="hardAlpha" operator="arithmetic" k2="-1" k3="1"/>
<feColorMatrix type="matrix" values="0 0 0 0 0.188733 0 0 0 0 0.479491 0 0 0 0 0.496667 0 0 0 0.23 0"/>
<feBlend mode="normal" in2="effect2_innerShadow_732_3383" result="effect3_innerShadow_732_3383"/>
</filter>
<linearGradient id="paint0_linear_732_3383" x1="359.237" y1="-8.80714" x2="117.082" y2="201.04" gradientUnits="userSpaceOnUse">
<stop stop-color="#C0DADC"/>
<stop offset="1" stop-color="#F1FDFE"/>
</linearGradient>
</defs>
</svg>
