<svg viewBox="0 0 562 562" fill="none" xmlns="http://www.w3.org/2000/svg">
<g filter="url(#filter0_dii_732_3300)">
<path d="M367.534 436.023C261.954 499.36 125.019 465.115 61.6817 359.534C-1.65534 253.954 32.5899 117.019 138.171 53.6818C243.751 -9.6552 380.686 24.59 444.023 130.171C507.36 235.751 473.115 372.686 367.534 436.023ZM175.033 115.131C103.39 158.109 80.1527 251.028 123.131 322.671C166.109 394.315 259.028 417.552 330.671 374.574C402.315 331.596 425.552 238.677 382.574 167.034C339.596 95.3904 246.677 72.1528 175.033 115.131Z" fill="url(#paint0_linear_732_3300)"/>
</g>
<defs>
<filter id="filter0_dii_732_3300" x="0.287819" y="0.288185" width="561.129" height="561.129" filterUnits="userSpaceOnUse" color-interpolation-filters="sRGB">
<feFlood flood-opacity="0" result="BackgroundImageFix"/>
<feColorMatrix in="SourceAlpha" type="matrix" values="0 0 0 0 0 0 0 0 0 0 0 0 0 0 0 0 0 0 127 0" result="hardAlpha"/>
<feOffset dx="28" dy="36"/>
<feGaussianBlur stdDeviation="28.8"/>
<feColorMatrix type="matrix" values="0 0 0 0 0.1008 0 0 0 0 0.205531 0 0 0 0 0.48 0 0 0 0.11 0"/>
<feBlend mode="normal" in2="BackgroundImageFix" result="effect1_dropShadow_732_3300"/>
<feBlend mode="normal" in="SourceGraphic" in2="effect1_dropShadow_732_3300" result="shape"/>
<feColorMatrix in="SourceAlpha" type="matrix" values="0 0 0 0 0 0 0 0 0 0 0 0 0 0 0 0 0 0 127 0" result="hardAlpha"/>
<feOffset dx="-13.1541" dy="11.4347"/>
<feGaussianBlur stdDeviation="3"/>
<feComposite in2="hardAlpha" operator="arithmetic" k2="-1" k3="1"/>
<feColorMatrix type="matrix" values="0 0 0 0 0.926667 0 0 0 0 0.993989 0 0 0 0 1 0 0 0 1 0"/>
<feBlend mode="normal" in2="shape" result="effect2_innerShadow_732_3300"/>
<feColorMatrix in="SourceAlpha" type="matrix" values="0 0 0 0 0 0 0 0 0 0 0 0 0 0 0 0 0 0 127 0" result="hardAlpha"/>
<feOffset dx="-19" dy="-21"/>
<feGaussianBlur stdDeviation="11.35"/>
<feComposite in2="hardAlpha" operator="arithmetic" k2="-1" k3="1"/>
<feColorMatrix type="matrix" values="0 0 0 0 0.188733 0 0 0 0 0.479491 0 0 0 0 0.496667 0 0 0 0.23 0"/>
<feBlend mode="normal" in2="effect2_innerShadow_732_3300" result="effect3_innerShadow_732_3300"/>
</filter>
<linearGradient id="paint0_linear_732_3300" x1="580.254" y1="255.182" x2="156.312" y2="117.101" gradientUnits="userSpaceOnUse">
<stop stop-color="#C0DADC"/>
<stop offset="1" stop-color="#F1FDFE"/>
</linearGradient>
</defs>
</svg>
