<svg viewBox="0 0 466 466" fill="none" xmlns="http://www.w3.org/2000/svg">
<g filter="url(#filter0_dii_732_3299)">
<path d="M416 201C416 295.993 338.993 373 244 373C149.007 373 72 295.993 72 201C72 106.007 149.007 29 244 29C338.993 29 416 106.007 416 201ZM128.48 201C128.48 264.8 180.2 316.52 244 316.52C307.8 316.52 359.52 264.8 359.52 201C359.52 137.2 307.8 85.4802 244 85.4802C180.2 85.4802 128.48 137.2 128.48 201Z" fill="url(#paint0_linear_732_3299)"/>
</g>
<defs>
<filter id="filter0_dii_732_3299" x="0.400002" y="0.400002" width="465.2" height="465.2" filterUnits="userSpaceOnUse" color-interpolation-filters="sRGB">
<feFlood flood-opacity="0" result="BackgroundImageFix"/>
<feColorMatrix in="SourceAlpha" type="matrix" values="0 0 0 0 0 0 0 0 0 0 0 0 0 0 0 0 0 0 127 0" result="hardAlpha"/>
<feOffset dx="-11" dy="32"/>
<feGaussianBlur stdDeviation="30.3"/>
<feColorMatrix type="matrix" values="0 0 0 0 0.1008 0 0 0 0 0.205531 0 0 0 0 0.48 0 0 0 0.11 0"/>
<feBlend mode="normal" in2="BackgroundImageFix" result="effect1_dropShadow_732_3299"/>
<feBlend mode="normal" in="SourceGraphic" in2="effect1_dropShadow_732_3299" result="shape"/>
<feColorMatrix in="SourceAlpha" type="matrix" values="0 0 0 0 0 0 0 0 0 0 0 0 0 0 0 0 0 0 127 0" result="hardAlpha"/>
<feOffset dx="-13.1541" dy="11.4347"/>
<feGaussianBlur stdDeviation="8.71467"/>
<feComposite in2="hardAlpha" operator="arithmetic" k2="-1" k3="1"/>
<feColorMatrix type="matrix" values="0 0 0 0 0.926667 0 0 0 0 0.993989 0 0 0 0 1 0 0 0 1 0"/>
<feBlend mode="normal" in2="shape" result="effect2_innerShadow_732_3299"/>
<feColorMatrix in="SourceAlpha" type="matrix" values="0 0 0 0 0 0 0 0 0 0 0 0 0 0 0 0 0 0 127 0" result="hardAlpha"/>
<feOffset dx="13.1541" dy="-11.4347"/>
<feGaussianBlur stdDeviation="8.71467"/>
<feComposite in2="hardAlpha" operator="arithmetic" k2="-1" k3="1"/>
<feColorMatrix type="matrix" values="0 0 0 0 0.188733 0 0 0 0 0.479491 0 0 0 0 0.496667 0 0 0 0.23 0"/>
<feBlend mode="normal" in2="effect2_innerShadow_732_3299" result="effect3_innerShadow_732_3299"/>
</filter>
<linearGradient id="paint0_linear_732_3299" x1="380.78" y1="-11.5161" x2="121.16" y2="214.168" gradientUnits="userSpaceOnUse">
<stop stop-color="#C0DADC"/>
<stop offset="1" stop-color="#F1FDFE"/>
</linearGradient>
</defs>
</svg>
