<svg width="274" height="466" viewBox="0 0 274 466" fill="none" xmlns="http://www.w3.org/2000/svg">
<g filter="url(#filter0_dii_211_1312)">
<path d="M224 201C224 295.993 146.993 373 52.0001 373C-42.9929 373 -120 295.993 -120 201C-120 106.007 -42.9929 29 52.0001 29C146.993 29 224 106.007 224 201ZM-63.5197 201C-63.5197 264.8 -11.7997 316.52 52.0001 316.52C115.8 316.52 167.52 264.8 167.52 201C167.52 137.2 115.8 85.4802 52.0001 85.4802C-11.7997 85.4802 -63.5197 137.2 -63.5197 201Z" fill="url(#paint0_linear_211_1312)"/>
</g>
<defs>
<filter id="filter0_dii_211_1312" x="-191.6" y="0.400002" width="465.2" height="465.2" filterUnits="userSpaceOnUse" color-interpolation-filters="sRGB">
<feFlood flood-opacity="0" result="BackgroundImageFix"/>
<feColorMatrix in="SourceAlpha" type="matrix" values="0 0 0 0 0 0 0 0 0 0 0 0 0 0 0 0 0 0 127 0" result="hardAlpha"/>
<feOffset dx="-11" dy="32"/>
<feGaussianBlur stdDeviation="30.3"/>
<feColorMatrix type="matrix" values="0 0 0 0 0.1008 0 0 0 0 0.205531 0 0 0 0 0.48 0 0 0 0.11 0"/>
<feBlend mode="normal" in2="BackgroundImageFix" result="effect1_dropShadow_211_1312"/>
<feBlend mode="normal" in="SourceGraphic" in2="effect1_dropShadow_211_1312" result="shape"/>
<feColorMatrix in="SourceAlpha" type="matrix" values="0 0 0 0 0 0 0 0 0 0 0 0 0 0 0 0 0 0 127 0" result="hardAlpha"/>
<feOffset dx="-13.1541" dy="11.4347"/>
<feGaussianBlur stdDeviation="8.71467"/>
<feComposite in2="hardAlpha" operator="arithmetic" k2="-1" k3="1"/>
<feColorMatrix type="matrix" values="0 0 0 0 0.926667 0 0 0 0 0.993989 0 0 0 0 1 0 0 0 1 0"/>
<feBlend mode="normal" in2="shape" result="effect2_innerShadow_211_1312"/>
<feColorMatrix in="SourceAlpha" type="matrix" values="0 0 0 0 0 0 0 0 0 0 0 0 0 0 0 0 0 0 127 0" result="hardAlpha"/>
<feOffset dx="13.1541" dy="-11.4347"/>
<feGaussianBlur stdDeviation="8.71467"/>
<feComposite in2="hardAlpha" operator="arithmetic" k2="-1" k3="1"/>
<feColorMatrix type="matrix" values="0 0 0 0 0.188733 0 0 0 0 0.479491 0 0 0 0 0.496667 0 0 0 0.23 0"/>
<feBlend mode="normal" in2="effect2_innerShadow_211_1312" result="effect3_innerShadow_211_1312"/>
</filter>
<linearGradient id="paint0_linear_211_1312" x1="188.78" y1="-11.5161" x2="-70.84" y2="214.168" gradientUnits="userSpaceOnUse">
<stop stop-color="#C0DADC"/>
<stop offset="1" stop-color="#F1FDFE"/>
</linearGradient>
</defs>
</svg>
