<svg viewBox="0 0 708 720" fill="none" xmlns="http://www.w3.org/2000/svg">
<g filter="url(#filter0_dii_732_3449)">
<path fill-rule="evenodd" clip-rule="evenodd" d="M428.3 118.11C410.706 124.435 392.741 130.892 376.025 130.689C359.104 130.483 340.888 123.362 323.062 116.395C294.472 105.219 266.887 94.4363 247.27 113.209C228.085 131.568 234.41 159.519 240.924 188.303C246.537 213.104 252.29 238.524 241.984 258.959C232.354 278.057 210.169 286.692 188.33 295.192C164.337 304.53 140.761 313.706 134.712 336.416C124.977 372.96 158.714 407.111 186.457 435.195C188.759 437.525 191.02 439.813 193.211 442.058C207.559 456.755 226.403 464.244 245.421 471.802C259.577 477.428 273.829 483.092 286.396 491.796C298.863 500.432 309.05 514.296 319.051 527.909C335.456 550.237 351.363 571.888 376.025 568.683C399.045 565.692 409.018 542.901 419.324 519.351C427.849 499.87 436.601 479.87 453.154 470.127C469.681 460.401 490.965 462.359 511.793 464.276C536.431 466.543 560.43 468.751 575.156 451.487C597.232 425.605 583.813 385.881 572.177 351.436C570.439 346.29 568.741 341.262 567.206 336.416C562.356 321.098 551.428 309.137 540.513 297.191C529.334 284.956 518.169 272.736 513.56 256.939C507.988 237.843 511.316 215.893 514.568 194.441C519.134 164.326 523.551 135.192 502.986 116.315C483.375 98.3131 456.306 108.043 428.3 118.11ZM405.433 191.052C393.729 195.259 381.78 199.555 370.66 199.42C359.404 199.283 347.286 194.546 335.429 189.911C316.411 182.476 298.062 175.303 285.013 187.791C272.25 200.005 276.458 218.599 280.791 237.747C284.525 254.245 288.351 271.155 281.496 284.749C275.09 297.454 260.333 303.198 245.805 308.853C229.845 315.065 214.163 321.169 210.139 336.277C203.663 360.587 226.105 383.306 244.56 401.988C246.091 403.538 247.595 405.06 249.052 406.553C258.596 416.331 271.131 421.313 283.782 426.34C293.199 430.083 302.679 433.851 311.039 439.641C319.332 445.386 326.108 454.609 332.761 463.665C343.673 478.518 354.255 492.921 370.66 490.789C385.973 488.799 392.607 473.638 399.462 457.972C405.133 445.012 410.955 431.707 421.966 425.226C432.959 418.756 447.118 420.059 460.972 421.334C477.362 422.842 493.326 424.311 503.121 412.826C517.806 395.608 508.88 369.183 501.14 346.268C499.984 342.845 498.854 339.501 497.833 336.277C494.607 326.086 487.338 318.13 480.077 310.183C472.641 302.044 465.214 293.914 462.148 283.406C458.442 270.702 460.655 256.1 462.819 241.83C465.856 221.796 468.794 202.416 455.114 189.858C442.069 177.882 424.062 184.355 405.433 191.052Z" fill="url(#paint0_linear_732_3449)"/>
</g>
<defs>
<filter id="filter0_dii_732_3449" x="0.900002" y="0.900002" width="706.2" height="718.2" filterUnits="userSpaceOnUse" color-interpolation-filters="sRGB">
<feFlood flood-opacity="0" result="BackgroundImageFix"/>
<feColorMatrix in="SourceAlpha" type="matrix" values="0 0 0 0 0 0 0 0 0 0 0 0 0 0 0 0 0 0 127 0" result="hardAlpha"/>
<feOffset dx="-6" dy="24"/>
<feGaussianBlur stdDeviation="63.05"/>
<feColorMatrix type="matrix" values="0 0 0 0 0.0962444 0 0 0 0 0.452301 0 0 0 0 0.473333 0 0 0 0.21 0"/>
<feBlend mode="normal" in2="BackgroundImageFix" result="effect1_dropShadow_732_3449"/>
<feBlend mode="normal" in="SourceGraphic" in2="effect1_dropShadow_732_3449" result="shape"/>
<feColorMatrix in="SourceAlpha" type="matrix" values="0 0 0 0 0 0 0 0 0 0 0 0 0 0 0 0 0 0 127 0" result="hardAlpha"/>
<feOffset dx="-17.3434" dy="27.7553"/>
<feGaussianBlur stdDeviation="15.9"/>
<feComposite in2="hardAlpha" operator="arithmetic" k2="-1" k3="1"/>
<feColorMatrix type="matrix" values="0 0 0 0 0.983333 0 0 0 0 0.99907 0 0 0 0 1 0 0 0 1 0"/>
<feBlend mode="normal" in2="shape" result="effect2_innerShadow_732_3449"/>
<feColorMatrix in="SourceAlpha" type="matrix" values="0 0 0 0 0 0 0 0 0 0 0 0 0 0 0 0 0 0 127 0" result="hardAlpha"/>
<feOffset dx="17.3434" dy="-27.7553"/>
<feGaussianBlur stdDeviation="16.3642"/>
<feComposite in2="hardAlpha" operator="arithmetic" k2="-1" k3="1"/>
<feColorMatrix type="matrix" values="0 0 0 0 0.0952001 0 0 0 0 0.433358 0 0 0 0 0.453333 0 0 0 0.14 0"/>
<feBlend mode="normal" in2="effect2_innerShadow_732_3449" result="effect3_innerShadow_732_3449"/>
</filter>
<linearGradient id="paint0_linear_732_3449" x1="452.997" y1="17.0522" x2="203.283" y2="406.387" gradientUnits="userSpaceOnUse">
<stop stop-color="#F1FEFF"/>
<stop offset="1" stop-color="#D6FDFF"/>
</linearGradient>
</defs>
</svg>
